<svg width="512" height="512" viewBox="0 0 512 512" fill="none" xmlns="http://www.w3.org/2000/svg">
<path d="M171.063 80L0 251.063L171.063 427.645L209.691 389.018L95.4368 274.764C94.3945 273.722 92.9808 273.136 91.5068 273.136H49.6635V234.509H91.5068C92.9808 234.509 94.3945 233.923 95.4368 232.881L209.691 118.627L171.063 80Z" fill="#0066FC"/>
<path d="M340.264 430.225L511.658 259.493L340.937 82.5807L302.235 121.133L416.267 235.608C417.308 236.652 418.72 237.24 420.194 237.243L462.037 237.324L461.963 275.951L420.119 275.87C418.645 275.867 417.231 276.45 416.186 277.491L301.711 391.523L340.264 430.225Z" fill="#0066FC"/>
</svg>
