<svg width="24" height="22" viewBox="0 0 24 22" fill="none" xmlns="http://www.w3.org/2000/svg">
<path opacity="0.4" d="M23.6666 16.8333V8.66667C23.6666 6.08934 21.5772 4 18.9999 4H15.8888C14.8791 4 13.8966 3.6725 13.0888 3.06667L10.911 1.43333C10.1032 0.827497 9.12076 0.5 8.11103 0.5H4.99992C2.42259 0.5 0.333252 2.58934 0.333252 5.16667V16.8333C0.333252 19.4107 2.42259 21.5 4.99992 21.5H18.9999C21.5772 21.5 23.6666 19.4107 23.6666 16.8333Z" fill="#B4D0FE"/>
<path fill-rule="evenodd" clip-rule="evenodd" d="M11.125 13.5338C11.0706 13.4928 11.0183 13.4476 10.9688 13.3981L9.11872 11.548C8.77701 11.2063 8.22299 11.2063 7.88128 11.548C7.53957 11.8897 7.53957 12.4437 7.88128 12.7854L9.73136 14.6355C10.9843 15.8884 13.0157 15.8884 14.2686 14.6355L16.1187 12.7854C16.4604 12.4437 16.4604 11.8897 16.1187 11.548C15.777 11.2063 15.223 11.2063 14.8813 11.548L13.0312 13.3981C12.9817 13.4476 12.9294 13.4928 12.875 13.5338V8.66669C12.875 8.18345 12.4832 7.7917 12 7.7917C11.5168 7.7917 11.125 8.18345 11.125 8.66669V13.5338Z" fill="#B4D0FE"/>
</svg>
