<svg width="28" height="28" viewBox="0 0 28 28" fill="none" xmlns="http://www.w3.org/2000/svg">
<path fill-rule="evenodd" clip-rule="evenodd" d="M24.4961 8.57551C24.4406 5.19846 23.7427 4.66663 20.0666 4.66663H13.2222L15.0888 6.06663C15.8966 6.67246 16.8791 6.99996 17.8888 6.99996H20.9999C22.3917 6.99996 23.6411 7.60919 24.4961 8.57551Z" fill="#0464FB"/>
<path opacity="0.4" d="M25.6666 19.8333V11.6667C25.6666 9.08934 23.5772 7 20.9999 7H17.8888C16.8791 7 15.8966 6.6725 15.0888 6.06667L12.911 4.43333C12.1032 3.8275 11.1208 3.5 10.111 3.5H6.99992C4.42259 3.5 2.33325 5.58934 2.33325 8.16667V19.8333C2.33325 22.4107 4.42259 24.5 6.99992 24.5H20.9999C23.5772 24.5 25.6666 22.4107 25.6666 19.8333Z" fill="#0464FB"/>
</svg>
