<svg width="28" height="28" viewBox="0 0 28 28" fill="none" xmlns="http://www.w3.org/2000/svg">
<rect width="28" height="28" rx="4" fill="#0464FB"/>
<path d="M11.0811 8L5 14L11.0811 20L12.4189 18.6531L8.70845 15.0272C8.43611 14.7611 8.07151 14.6122 7.69198 14.6122H6.7027V13.3878H7.69198C8.07151 13.3878 8.43611 13.2389 8.70845 12.9728L12.4189 9.34694L11.0811 8Z" fill="white"/>
<path d="M16.9189 8L23 14L16.9189 20L15.5811 18.6531L19.2915 15.0272C19.5639 14.7611 19.9285 14.6122 20.308 14.6122H21.2973V13.3878H20.308C19.9285 13.3878 19.5639 13.2389 19.2915 12.9728L15.5811 9.34694L16.9189 8Z" fill="white"/>
</svg>
