<svg width="28" height="28" viewBox="0 0 28 28" fill="none" xmlns="http://www.w3.org/2000/svg">
<path opacity="0.4" d="M2.33325 9.33329C2.33325 6.75596 4.42259 4.66663 6.99992 4.66663H15.1666C17.7439 4.66663 19.8333 6.75596 19.8333 9.33329V18.6666C19.8333 21.244 17.7439 23.3333 15.1666 23.3333H6.99992C4.42259 23.3333 2.33325 21.244 2.33325 18.6666V9.33329Z" fill="#0464FB"/>
<path d="M19.8333 12.4708C19.8333 11.4546 20.2201 10.4764 20.9151 9.73504L21.631 8.97142C23.0777 7.42826 25.6666 8.45203 25.6666 10.5673V17.433C25.6666 19.5482 23.0777 20.572 21.631 19.0288L20.9151 18.2652C20.2201 17.5238 19.8333 16.5457 19.8333 15.5294V12.4708Z" fill="#0464FB"/>
<circle cx="12.8333" cy="11.6667" r="2.33333" fill="#0464FB"/>
</svg>
