<svg width="24" height="24" viewBox="0 0 24 24" fill="none" xmlns="http://www.w3.org/2000/svg">
<path opacity="0.4" d="M4.99967 0.333496H18.9997C21.577 0.333496 23.6663 2.42283 23.6663 5.00016V19.0002C23.6663 21.5775 21.577 23.6668 18.9997 23.6668H4.99967C2.42235 23.6668 0.333008 21.5775 0.333008 19.0002V5.00016C0.333008 2.42283 2.42235 0.333496 4.99967 0.333496Z" fill="#B4D1FE"/>
<path fill-rule="evenodd" clip-rule="evenodd" d="M13.1663 8.2085C12.6831 8.2085 12.2913 7.81675 12.2913 7.3335C12.2913 6.85025 12.6831 6.4585 13.1663 6.4585H16.6663C17.1496 6.4585 17.5413 6.85025 17.5413 7.3335V10.8335C17.5413 11.3167 17.1496 11.7085 16.6663 11.7085C16.1831 11.7085 15.7913 11.3167 15.7913 10.8335V9.44593L9.44544 15.7918H10.833C11.3163 15.7918 11.708 16.1836 11.708 16.6668C11.708 17.1501 11.3163 17.5418 10.833 17.5418H7.33301C6.84976 17.5418 6.45801 17.1501 6.45801 16.6668V13.1668C6.45801 12.6836 6.84976 12.2918 7.33301 12.2918C7.81626 12.2918 8.20801 12.6836 8.20801 13.1668V14.5544L14.5539 8.2085H13.1663Z" fill="#B4D1FE"/>
</svg>
